<svg width="44" height="44" viewBox="0 0 44 44" fill="none" xmlns="http://www.w3.org/2000/svg">
<rect x="0.48999" y="0.5" width="43" height="43" rx="21.5" stroke="#7A00E6"/>
<path d="M22.99 15C22.99 14.4469 22.5431 14 21.99 14C21.4369 14 20.99 14.4469 20.99 15V22.5844L18.6962 20.2906C18.3056 19.9 17.6712 19.9 17.2806 20.2906C16.89 20.6813 16.89 21.3156 17.2806 21.7063L21.2806 25.7063C21.6712 26.0969 22.3056 26.0969 22.6962 25.7063L26.6962 21.7063C27.0869 21.3156 27.0869 20.6813 26.6962 20.2906C26.3056 19.9 25.6712 19.9 25.2806 20.2906L22.99 22.5844V15ZM15.99 25C14.8869 25 13.99 25.8969 13.99 27V28C13.99 29.1031 14.8869 30 15.99 30H27.99C29.0931 30 29.99 29.1031 29.99 28V27C29.99 25.8969 29.0931 25 27.99 25H24.8181L23.4025 26.4156C22.6212 27.1969 21.3556 27.1969 20.5744 26.4156L19.1619 25H15.99ZM27.49 26.75C27.6889 26.75 27.8797 26.829 28.0203 26.9697C28.161 27.1103 28.24 27.3011 28.24 27.5C28.24 27.6989 28.161 27.8897 28.0203 28.0303C27.8797 28.171 27.6889 28.25 27.49 28.25C27.2911 28.25 27.1003 28.171 26.9597 28.0303C26.819 27.8897 26.74 27.6989 26.74 27.5C26.74 27.3011 26.819 27.1103 26.9597 26.9697C27.1003 26.829 27.2911 26.75 27.49 26.75Z" fill="#7A00E6"/>
</svg>
